<!--?xml version="1.0" encoding="utf-8"?-->
<!-- Generator: Adobe Illustrator 19.1.1, SVG Export Plug-In . SVG Version: 6.00 Build 0)  -->
<svg version="1.1" id="_x31_0" xmlns="http://www.w3.org/2000/svg" xmlns:xlink="http://www.w3.org/1999/xlink" x="0px" y="0px" viewBox="0 0 512 512" style="width: 256px; height: 256px; opacity: 1;" xml:space="preserve">
<style type="text/css">
	.st0{fill:#374149;}
</style>
<g>
	<path class="st0" d="M117.92,392.698h0.082h275.944h0.082c9.531,0,17.257-7.73,17.257-17.26v-0.078V174.47V163.81
		c0-9.574-7.765-17.339-17.338-17.339h-10.66H128.662h-10.659c-9.574,0-17.339,7.766-17.339,17.339v10.659v200.89v0.078
		C100.664,384.969,108.39,392.698,117.92,392.698z M247.616,279.342v-24.635h16.718v24.635H247.616z M311.924,269.406
		c-0.41-0.031-0.824-0.035-1.226-0.082c-3.453-0.426-6.726-1.398-9.742-2.839c-0.195-0.094-0.383-0.199-0.578-0.297
		c-1.363-0.692-2.675-1.465-3.918-2.34c-0.133-0.09-0.266-0.18-0.394-0.274c-9.839-7.132-15.421-19.784-12.152-33.392
		c0.004-0.024,0.012-0.043,0.012-0.063c0.946-3.902,2.617-7.886,5.125-11.835c1.48-2.331,3.492-4.343,5.824-5.823
		c3.789-2.402,7.601-3.992,11.35-4.957c0.394-0.098,0.793-0.188,1.184-0.274c1.418-0.309,2.816-0.512,4.202-0.637
		c0.469-0.039,0.942-0.106,1.406-0.129c1.621-0.078,3.218-0.043,4.781,0.117c0.258,0.028,0.508,0.059,0.762,0.094
		c1.481,0.187,2.918,0.484,4.324,0.867c0.598,0.164,1.172,0.374,1.75,0.574c0.961,0.325,1.906,0.68,2.82,1.094
		c0.586,0.262,1.168,0.535,1.734,0.832c0.93,0.489,1.816,1.031,2.687,1.602c0.453,0.301,0.926,0.574,1.363,0.894
		c1.238,0.91,2.422,1.898,3.515,2.981c0.27,0.266,0.504,0.574,0.766,0.851c0.832,0.879,1.621,1.793,2.344,2.766
		c0.332,0.442,0.636,0.906,0.945,1.371c0.598,0.894,1.152,1.824,1.66,2.785c0.254,0.48,0.512,0.957,0.742,1.453
		c0.539,1.16,0.996,2.363,1.39,3.594c0.106,0.317,0.242,0.617,0.336,0.942c0.446,1.554,0.758,3.16,0.961,4.8
		c0.058,0.45,0.058,0.914,0.094,1.371c0.094,1.129,0.118,2.274,0.086,3.434c-0.039,1.34-0.196,2.644-0.398,3.941
		c-0.102,0.672-0.164,1.336-0.305,2.016c-2.656,11.941-12.054,21.326-24.046,23.963c-0.614,0.125-1.214,0.183-1.82,0.278
		c-1.344,0.214-2.703,0.37-4.098,0.41C314.236,269.522,313.068,269.503,311.924,269.406z M319.049,309.903v28.638H192.9v-28.638
		h125.926H319.049z M215.888,263.574c-0.13,0.094-0.266,0.184-0.399,0.274c-1.242,0.871-2.554,1.648-3.918,2.336
		c-0.195,0.098-0.382,0.206-0.578,0.301c-3.016,1.441-6.289,2.414-9.742,2.839c-0.402,0.047-0.817,0.051-1.226,0.082
		c-1.145,0.098-2.313,0.117-3.488,0.086c-1.395-0.039-2.754-0.195-4.098-0.41c-0.606-0.094-1.207-0.153-1.82-0.278
		c-11.992-2.637-21.39-12.022-24.046-23.963c-0.141-0.68-0.203-1.344-0.305-2.016c-0.203-1.297-0.359-2.601-0.398-3.941
		c-0.031-1.16-0.008-2.305,0.086-3.434c0.035-0.457,0.035-0.922,0.094-1.371c0.203-1.64,0.516-3.246,0.962-4.8
		c0.094-0.325,0.23-0.625,0.335-0.942c0.395-1.23,0.852-2.434,1.391-3.594c0.23-0.496,0.488-0.973,0.742-1.453
		c0.508-0.961,1.062-1.89,1.66-2.785c0.309-0.465,0.614-0.93,0.946-1.371c0.722-0.969,1.512-1.883,2.34-2.758
		c0.262-0.282,0.5-0.59,0.773-0.863c1.094-1.078,2.274-2.066,3.512-2.977c0.441-0.324,0.914-0.598,1.37-0.894
		c0.867-0.57,1.75-1.113,2.676-1.598c0.566-0.301,1.152-0.574,1.738-0.84c0.914-0.41,1.859-0.765,2.82-1.09
		c0.578-0.195,1.152-0.41,1.75-0.574c1.406-0.383,2.844-0.68,4.324-0.867c0.254-0.035,0.504-0.066,0.762-0.094
		c1.562-0.16,3.16-0.195,4.782-0.117c0.465,0.023,0.937,0.09,1.406,0.129c1.387,0.125,2.789,0.328,4.203,0.637
		c0.39,0.086,0.789,0.176,1.179,0.274c3.75,0.965,7.566,2.554,11.355,4.957c2.332,1.48,4.343,3.492,5.824,5.823
		c2.507,3.95,4.175,7.93,5.121,11.832c0.003,0.023,0.011,0.046,0.019,0.066C231.304,243.794,225.723,256.442,215.888,263.574z" style="fill: rgb(73, 83, 91);"></path>
	<path class="st0" d="M474.48,232.712c-7.144-7.144-17.01-11.566-27.912-11.566h-12.35v78.914h12.35
		c21.803,0,39.466-17.663,39.466-39.451C486.035,249.707,481.609,239.841,474.48,232.712z" style="fill: rgb(73, 83, 91);"></path>
	<path class="st0" d="M37.519,232.712c-7.132,7.129-11.554,16.995-11.554,27.897c0,21.788,17.663,39.451,39.466,39.451h12.35
		v-78.914h-12.35C54.526,221.146,44.66,225.568,37.519,232.712z" style="fill: rgb(73, 83, 91);"></path>
	<path class="st0" d="M243.776,46.798c3.762,2.082,5.918,6.082,5.441,10.32l-7.351,61.586l-0.89,7.292h0.019l-0.019,0.157h30.076
		l-8.238-69.035c-0.481-4.238,1.68-8.238,5.359-10.32c7.441-4.238,12.479-12.238,12.479-21.44c0-13.589-10.948-24.545-24.537-24.635
		l0.074-0.562l-0.015-0.141l-0.078,0.703l0,0L256.014,0l-0.078,0.722c-13.601,0.078-24.561,11.038-24.561,24.635
		C231.375,34.56,236.335,42.56,243.776,46.798z M251.053,11.601c4.961,0,8.96,4,8.96,8.878c0,4.961-3.999,8.961-8.96,8.961
		c-4.957,0-8.957-4-8.957-8.961C242.096,15.601,246.096,11.601,251.053,11.601z" style="fill: rgb(73, 83, 91);"></path>
	<path class="st0" d="M400.63,416.607H111.366c-16.963,0-30.623,13.734-30.623,30.623V512h350.51v-64.77
		C431.253,430.341,417.594,416.607,400.63,416.607z" style="fill: rgb(73, 83, 91);"></path>
</g>
</svg>
