<!--?xml version="1.0" encoding="utf-8"?-->
<!-- Generator: Adobe Illustrator 19.1.1, SVG Export Plug-In . SVG Version: 6.00 Build 0)  -->
<svg version="1.1" id="_x31_0" xmlns="http://www.w3.org/2000/svg" xmlns:xlink="http://www.w3.org/1999/xlink" x="0px" y="0px" viewBox="0 0 512 512" style="width: 256px; height: 256px; opacity: 1;" xml:space="preserve">
<style type="text/css">
	.st0{fill:#374149;}
</style>
<g>
	<path class="st0" d="M24.999,86.386c1.337,0.698,2.756,1.243,4.23,1.699c0.214,0.07,0.433,0.141,0.654,0.203
		c13.41,3.812,31.279-1.115,43.586-1.111c11.203,0.008,16.863-0.304,21.884,8.428l3.711,7.48
		c15.281-2.881,14.474-2.771,10.275-15.109c-3.964-11.644-0.46-18.801,7.781-27.166c10.073-10.225,46.373-37.582,34.962-56.476
		c-7.215-11.952-9.804,4.424-13.686,6.12c-9.344,4.078-9.332-5.863-12.875,5.789c-0.206,0.686,2.974,10.54,2.276,13.538
		c-1.446,6.174-9.382,14.33-13.37,18.614c-1.391,1.493-18.243,17.093-22.878,15.924c-0.163-0.047-0.296-0.125-0.425-0.211
		c-0.167-0.105-0.35-0.194-0.464-0.374c-1.816-2.939,10.085-15.495,11.27-18.002c4.639-9.8,3.466-21.159,2.148-31.774
		c-1.399-11.246,1.458-7.43-6.51-5.691c-1.018,0.222-3.134,3.73-5.006,4.725c-0.098,0.05-0.179,0.129-0.281,0.175
		c-2.175,0.811-7.157-6.194-9.772-2.947c-6.105,7.578,27.034,23.83,2.686,38.105c-5.531,3.243-13.145,4.011-19.398,3.77
		c-2.69-0.102-26.566-7.773-27.684-6.666c-7.606,7.547,26.297,17.643,27.525,19.242c11.69,15.218-19.97,13.78-27.884,12.599
		c-3.095-0.46-18.29-7.379-20.177-6.37c-5.617,3.002-0.171,9.917,3.259,12.871c1.083,0.936,2.342,1.555,3.562,2.242
		C24.605,86.129,24.784,86.273,24.999,86.386z" style="fill: rgb(73, 83, 91);"></path>
	<path class="st0" d="M495.669,180.815c-0.125-1.068-0.246-2.094-0.406-3.395c-0.019,0.011-0.039,0.015-0.054,0.027
		c-0.012-0.062-0.016-0.102-0.024-0.168c-34.405,20.002-77.179-2.35-113.686-2.35h-2.986c-32.125,0-61.661,8.759-93.193,12.774
		c-0.258,0.054-0.546,0.086-0.862,0.113c-0.69,0.086-1.434,0.199-2.152,0.316c-8.982,1.076-17.951,1.988-26.979,2.611
		c-0.144,0.028-0.288,0.028-0.429,0.028c-15.44,1.002-30.912,1.349-46.384,1.376h-0.631c-2.612-1.575-5.224-3.158-6.054-3.758
		h-0.031c-0.971-0.686-2.175-1.543-3.49-2.573l-0.011-0.007c-0.398-0.32-0.799-0.639-1.205-0.951
		c-2.861-2.261-5.313-4.023-7.519-6.861c-7.177-19.83-24.854-34.238-28.932-38.744c-0.145-0.144-0.23-0.285-0.343-0.402
		c-3.961-4.818-7.621-9.815-11.48-14.723c4.276-5.025,6.085-11.854,6.401-17.565c-6.545-0.951-13.293,0.246-19.261,3.013
		c-0.487-0.518-0.974-1.006-1.462-1.466c-2.959-2.958-6.881-5.512-11.196-5.512h-0.027c-0.316,0-0.662,0-0.978,0.031
		c-1.087,0.07-2.155,0.242-3.212,0.514c-7.59,1.958-16.466,3.965-23.162,8.147c-9.691,6.05-9.933,15.694-17.054,23.646
		c-9.804,10.946-26.558,18.641-38.425,27.591c-0.058,0.175-0.109,0.35-0.155,0.53c-9.504,2.573-8.915,16.208,0.366,18.637
		c4.455,10.271,19.541,8.416,28.433,8.416h0.947c8.33,1.774,17.109,2.058,25.459,0.289c7.574,8.666,15.81,14.407,15.81,14.407
		s3.302,33.091,9.274,43.426c0.745,2.121,1.579,4.101,2.437,5.797c4.455,13.164,8.058,30.331,16.247,41.788
		c6.116,8.556,8.139,11.195,14.306,20.025c2.791,1.259,4.846,5.925,7.866,7.578c0.402,0.199,0.83,0.429,1.29,0.632
		c0.027,0.027,0.086,0.027,0.113,0.054c0.46,0.261,1.006,0.491,1.638,0.748c1.75,0.632,11.035,4.257,14.193,4.686
		c9.808,44.194,19.292,85.611,17.25,131.251l-1.638,0.802c1.076,6.635,0.826,13.5-1.376,19.893
		c-1.43,4.151-10.845,13.456-10.018,17.592c-4.253,16.715,22.785,13.921,32.262,9.675c1.493-5.714,1.98-7.438,1.98-7.438
		s3.216-3.73,3.216-6.946c-1.236-8.693-2.958-9.442-3.474-10.186c-0.647-46.646,1.622-92.297,5.914-137.975
		c0.195-2.019,0.324-3.957,0.526-5.988c8.139,1.404,16.376,2.406,24.586,3.298h0.027c5.282,0.573,10.763,1.091,16.361,1.551h0.027
		c15.538,1.193,31.115,1.894,46.7,1.894h0.113c2.927,0,5.886-0.031,8.814-0.086h0.086c2.928-0.062,5.855-0.117,8.782-0.234h0.086
		c2.896-0.114,5.796-0.226,8.666-0.398c0.031,0,0.031,0,0.058,0c13.643-0.819,27.302-2.152,40.728-4.795
		c22.819,6.83,55.65,24.738,70.202,44.112c10.958,14.586,12.002,35.438,11.145,52.835c-0.604,12.263-6.35,28.316-3.134,40.502
		c-3.442,2.394-9.987,17.472-9.59,21.471c0.145,0.83,0.347,1.692,0.605,2.526c0.202,0.546,0.429,1.061,0.69,1.575
		c0.285,0.518,0.6,1.006,0.947,1.434c0.37,0.452,0.784,0.866,1.232,1.236c3.75,3.002,14.205,2.273,18.01,0.206
		c8.537-4.631,4.03-5.808,5.059-14.427c0.254-2.113,3.821-3.645,3.902-4.838c0.175-2.646-2.643-8.459-1.509-10.704
		c0.99-1.961,4.554-1.996,4.791-3.415c2.565-12.197-4.76-26.667-3.025-40.038c1.785-13.772,3.239-27.587,4.834-41.382
		c1.17-10.097,2.206-14.233-2.125-23.198c-11.168-23.12-20.372-32.159-10.708-59.096c0.776-0.725,1.357-1.59,2.066-2.362
		c0.515-0.554,1.014-1.126,1.498-1.707c1.302-1.567,2.498-3.224,3.57-4.966c0.421-0.686,0.814-1.391,1.201-2.105
		c1.006-1.859,1.902-3.82,2.67-5.878c0.23-0.624,0.445-1.267,0.655-1.91c0.78-2.366,1.426-4.865,1.922-7.5
		c0.062-0.342,0.117-0.698,0.179-1.044c1.642-9.547,1.536-20.906-0.171-34.425c-0.113-0.92-0.25-1.867-0.374-2.81
		c-0.448-3.197-0.943-6.483-1.555-9.921c-0.62-3.563-1.302-7.231-2.097-11.086c-0.047-0.214-0.074-0.398-0.118-0.616
		c8.569-1.906,14.693-8.326,16.606-21.397c0.608-3.836,0.822-8.202,0.706-13.032C496.998,192.47,497.193,192.006,495.669,180.815z" style="fill: rgb(73, 83, 91);"></path>
</g>
</svg>
