<!--?xml version="1.0" encoding="utf-8"?-->
<!-- Generator: Adobe Illustrator 24.1.1, SVG Export Plug-In . SVG Version: 6.00 Build 0)  -->
<svg version="1.1" id="_x31_0" xmlns="http://www.w3.org/2000/svg" xmlns:xlink="http://www.w3.org/1999/xlink" x="0px" y="0px" viewBox="0 0 512 512" style="width: 256px; height: 256px; opacity: 1;" xml:space="preserve">
<style type="text/css">
	.st0{fill:#374149;}
</style>
<g>
	<path class="st0" d="M391.452,208.731c3.727-5.042,7.682-9.466,12.022-13.19c2.485-2.246,4.735-3.954,6.826-5.273
		c3.106-2.018,5.046-2.561,6.129-2.561c2.871,0,5.281-2.17,5.666-4.966c0.386-3.178-1.787-6.05-4.962-6.515
		c-0.856-0.079-1.712-0.155-2.485-0.155c-3.803,0-6.826,1.242-9.462,2.25l-0.932,0.386c-3.03,1.318-6.053,3.027-9.621,5.277
		c-5.583,3.799-10.939,8.299-16.212,13.807c-9.856,10.398-17.53,23.117-22.266,36.693c-4.651,13.81-6.204,28.86-4.575,43.598
		c0.931,7.758,2.477,14.974,4.575,21.334l0.697,2.33l0.932,3.568l0.386,1.86l0.47,3.492v3.178c-0.31,3.878-1.553,7.061-3.878,9.932
		c-2.25,2.871-5.818,5.428-10.167,7.522c-7.136,3.493-16.136,5.587-26.841,6.284v9.542c4.038,2.485,7.834,4.19,11.561,5.201
		c2.795,0.773,5.818,1.163,8.917,1.163c4.273,0,9-0.777,14.121-2.174c8.69-2.406,17.842-6.67,26.53-11.17
		c4.97-7.447,7.682-16.678,7.53-25.834l-0.083-1.474c-0.076-1.704-0.151-3.333-0.386-5.197l-1.166-5.818
		c-0.303-1.473-0.773-2.871-1.235-4.265l-1.553-4.5l-0.932-2.33c-2.25-5.583-3.727-11.481-4.81-16.443
		c-2.326-11.019-2.174-22.731,0.47-33.902C379.118,229.522,384.239,218.583,391.452,208.731z" style="fill: rgb(73, 83, 91);"></path>
	<path class="st0" d="M100.466,426.409c2.561-0.931,5.97-1.473,9.849-1.473h1.553l2.015,0.155l5.591,0.386l8.606,0.466
		c5.197,0.231,10.318,0.386,15.514,0.386h2.099c8.841-0.155,18.386-0.462,28.31-1.629c2.719-6.129,6.522-11.246,9.697-14.97
		l0.159-0.155h-1.629c-5.583,0-11.091-0.466-16.522-1.474c-7.917-1.474-15.75-3.879-23.894-7.447
		c-3.258-1.398-6.288-2.871-9.31-4.424c-1.553,0.155-3.182,0.31-4.735,0.39l-8.068,0.542l-5.583,0.23
		c-1.083,0.08-2.25,0.08-3.334,0.235c-8.303,0.697-15.053,2.406-21.098,5.507c-7.758,3.879-14.28,11.171-16.841,19.008
		c-3.098,8.53-2.478,16.598-1.78,21.95c0.856,5.818,2.401,11.637,4.81,18.311c3.954,10.47,9.151,20.477,16.447,31.496
		c1.47,2.246,3.878,3.568,6.59,3.568c1.167,0,2.326-0.234,3.417-0.777c3.954-1.939,5.583-6.67,3.568-10.704
		c-4.575-9.466-8.378-19.705-10.788-29.482c-1.242-5.272-1.939-10.083-2.015-14.272c-0.075-4.576,0.546-8.455,1.864-10.94
		C96.118,428.89,97.747,427.496,100.466,426.409z" style="fill: rgb(73, 83, 91);"></path>
	<path class="st0" d="M130.8,290.882l-0.78,2.25l-1.546,4.424c-0.47,1.394-0.932,2.792-1.242,4.19l-1.242,6.125
		c-0.159,1.633-0.235,3.262-0.31,4.89l-0.159,1.704c-0.152,9,2.644,18.386,7.606,25.758c8.766,4.421,17.841,8.686,26.53,11.091
		c5.046,1.398,9.773,2.174,14.038,2.174c3.182,0,6.129-0.39,9-1.163c3.727-1.011,7.53-2.716,11.56-5.276v-9.386
		c-10.78-0.777-19.78-2.871-26.841-6.364c-4.424-2.094-7.909-4.651-10.242-7.602c-2.326-2.791-3.568-5.974-3.795-9.462l-0.083-3.182
		l0.546-3.954l0.386-1.784l0.857-3.413l0.697-2.33c2.174-6.515,3.727-13.731,4.575-21.489c1.705-14.738,0.076-29.788-4.575-43.598
		c-4.652-13.576-12.334-26.22-22.266-36.693c-5.273-5.508-10.553-10.008-16.212-13.807c-3.492-2.25-6.515-3.958-9.697-5.352
		l-0.856-0.311c-2.637-1.007-5.583-2.25-9.462-2.25c-0.773,0-1.553,0.076-2.402,0.155c-2.871,0.386-5.045,2.792-5.045,5.663
		c0,3.182,2.485,5.818,6.128,5.818c0.698,0,2.637,0.542,5.743,2.561c2.09,1.318,4.341,3.026,6.826,5.273
		c4.265,3.723,8.303,8.148,12.022,13.19c7.212,9.852,12.334,20.791,14.742,31.651c2.561,11.17,2.712,22.882,0.462,33.822
		C134.679,279.246,133.201,285.144,130.8,290.882z" style="fill: rgb(73, 83, 91);"></path>
	<path class="st0" d="M422.33,403.212c-6.053-3.178-12.803-4.886-21.022-5.583c-1.167-0.155-2.334-0.155-3.493-0.235l-5.507-0.23
		l-8.069-0.542c-1.629-0.156-3.182-0.235-4.81-0.39c-2.947,1.553-6.053,3.026-9.234,4.424c-8.22,3.568-15.978,5.974-23.894,7.447
		c-5.424,1.007-11.015,1.474-16.522,1.474h-1.629l0.083,0.075c3.258,3.724,6.978,8.845,9.773,15.05
		c9.924,1.166,19.394,1.474,28.31,1.629h2.023c5.197,0,10.394-0.155,15.59-0.386l8.606-0.466l5.515-0.386
		c0.697-0.08,1.394-0.155,2.242-0.155h1.326c3.878,0,7.288,0.542,9.848,1.473c2.796,1.087,4.425,2.482,5.584,4.886
		c1.318,2.485,1.939,6.364,1.863,10.94c-0.075,4.189-0.773,9-2.09,14.272c-2.41,9.777-6.129,20.015-10.864,29.637
		c-1.705,3.489-0.546,7.834,2.795,10.004c1.235,0.856,2.788,1.322,4.341,1.322c2.637,0,5.122-1.322,6.591-3.568
		c7.22-11.019,12.417-21.026,16.371-31.496c2.485-6.674,4.038-12.493,4.81-18.311c0.773-5.352,1.318-13.42-1.704-21.874
		C436.527,414.307,430.088,407.015,422.33,403.212z" style="fill: rgb(73, 83, 91);"></path>
	<path class="st0" d="M485.081,330.394c-5.894-6.359-13.421-10.939-21.334-12.723c-3.258-0.773-6.67-1.163-10.163-1.163
		c-4.651,0-9.462,0.698-14.428,2.019c-6.439,1.784-13.11,4.652-20.246,8.686l-10.704,5.974c-7.451,4.19-14.898,8.303-22.266,12.102
		c-0.621,0.31-1.242,0.621-1.863,0.932c-2.867,1.473-5.818,2.946-8.766,4.42c-4.575,2.174-9.155,4.114-13.73,5.742
		c-0.076,0.076-0.076,0.155-0.156,0.076c-2.326,0.932-4.655,1.708-6.981,2.33c-5.742,1.629-11.17,2.481-16.212,2.481
		c-3.803,0-7.447-0.542-10.939-1.474c-5.587-1.474-11.25-4.265-17.299-8.534v-17.766c1.318-0.466,2.636-0.928,3.878-1.629
		c1.163-0.542,2.326-1.162,3.338-1.939c0.23,0,0.386,0,0.542-0.076v-0.31c6.515-4.731,10.704-12.337,10.704-20.947
		c0-8.61-4.189-16.291-10.704-21.022c-1.163-0.932-2.482-1.705-3.879-2.326c-1.242-0.622-2.561-1.163-3.878-1.554v-15.901
		c-1.008,1.162-2.019,2.326-2.871,3.178c-3.102,2.871-7.216,4.269-11.557,4.269h-79.129c-4.345,0-8.534-1.398-11.561-4.269
		c-0.852-0.852-1.86-2.015-2.867-3.178v15.901c-1.318,0.39-2.641,0.932-3.879,1.554c-1.398,0.621-2.716,1.394-3.878,2.326
		c-6.519,4.731-10.709,12.413-10.709,21.022c0,8.61,4.19,16.216,10.709,20.947v0.31c0.23,0.076,0.386,0.076,0.542,0.076
		c1.007,0.777,2.174,1.398,3.337,1.939c1.238,0.701,2.561,1.163,3.879,1.629v17.766c-6.054,4.269-11.716,7.06-17.379,8.534
		c-3.413,0.932-7.057,1.474-10.935,1.474c-4.966,0-10.398-0.852-16.137-2.481c-2.174-0.622-4.345-1.318-6.594-2.095
		c-4.731-1.629-9.466-3.723-14.197-5.973c-3.027-1.398-5.974-2.947-8.921-4.425c-0.622-0.306-1.242-0.617-1.864-0.928
		c-7.367-3.878-14.738-7.992-22.261-12.182l-10.629-5.894c-7.216-4.114-13.811-6.982-20.326-8.766
		c-4.886-1.322-9.773-2.019-14.353-2.019c-3.568,0-6.981,0.39-10.162,1.163c-7.913,1.784-15.515,6.364-21.334,12.648
		c-4.651,5.042-8.53,11.09-11.867,18.693c-5.042,11.716-8.144,24.591-9.386,39.254c-0.311,3.493,2.015,6.671,5.431,7.371
		l1.008,0.076h0.386c3.258,0,6.129-2.25,6.826-5.662c2.485-12.334,6.594-23.739,11.947-32.89
		c5.818-10.242,13.655-16.682,21.102-17.379c0.697-0.075,1.474-0.075,2.17-0.075c6.826,0,14.894,3.413,24.049,10.238l9.622,7.136
		c6.902,5.198,13.882,10.398,21.098,15.515c7.682,5.277,15.75,10.86,24.746,15.67c2.094,1.163,4.189,2.25,6.363,3.258
		c1.474,0.701,2.947,1.398,4.5,2.095c0.697,0.31,1.474,0.621,2.17,0.856c6.826,2.791,13.345,4.806,20.015,6.049
		c4.966,0.853,10.008,1.318,15.125,1.318c3.258,0,6.519-0.155,9.698-0.542c5.197-0.621,10.474-1.784,15.75-3.337l-5.121,4.424
		c-4.11,3.489-8.766,7.447-12.955,12.409c-2.014,2.33-4.265,5.198-6.204,8.614c-0.856,1.394-1.553,2.792-2.25,4.342
		c-0.621,1.322-1.087,2.715-1.553,4.114c-0.622,1.859-1.087,3.878-1.318,5.894c-1.318,7.447-0.546,14.974,2.482,23.507
		c2.33,6.826,5.587,12.724,8.844,18.231c6.285,10.083,13.5,19.626,22.652,30.098c1.398,1.55,3.337,2.406,5.432,2.406
		c1.629,0,3.258-0.546,4.575-1.629c1.474-1.242,2.406-2.95,2.561-4.89c0.231-1.859-0.31-3.723-1.629-5.352
		c-7.447-9.151-13.655-19.083-17.765-28.856c-2.174-5.042-3.724-10.242-4.576-15.129c-0.701-4.731-0.39-9,0.697-11.481
		c3.413-6.05,12.258-9.307,21.875-12.413l2.95-0.929c4.807-1.632,10.314-3.337,16.834-6.829c4.11-2.25,8.454-5.042,12.799-10.239
		c4.345,5.197,8.69,7.989,12.799,10.239c6.515,3.492,12.023,5.197,16.834,6.829l2.947,0.929c9.621,3.106,18.466,6.363,21.643,12.102
		c1.318,2.792,1.629,7.061,0.857,11.792c-0.777,4.81-2.33,10.087-4.58,15.129c-4.11,9.773-10.238,19.705-17.765,28.935
		c-2.482,3.027-2.095,7.447,0.776,10.008c1.318,1.162,3.026,1.784,4.811,1.784c2.094,0,4.034-0.856,5.431-2.485
		c9.152-10.394,16.288-19.936,22.652-30.098c3.178-5.428,6.515-11.326,8.841-18.076c2.95-8.61,3.727-16.136,2.485-23.428
		c-0.235-2.094-0.697-4.11-1.398-6.049c-0.386-1.398-0.932-2.792-1.474-4.114c-0.697-1.55-1.474-3.023-2.326-4.342
		c-1.94-3.416-4.114-6.284-6.129-8.614c-4.269-4.962-8.925-8.92-13.034-12.409l-5.121-4.424c5.276,1.553,10.553,2.716,15.75,3.337
		c3.178,0.386,6.515,0.542,9.773,0.542c5.042,0,10.163-0.466,15.129-1.318c6.594-1.242,13.11-3.182,19.936-6.049
		c0.776-0.235,1.473-0.546,2.25-0.856c1.553-0.697,3.102-1.394,4.655-2.095c2.095-1.083,4.19-2.094,6.205-3.178
		c8.845-4.81,16.758-10.242,24.746-15.75c7.215-5.117,14.121-10.318,21.026-15.515l9.697-7.212
		c9.151-6.75,17.22-10.162,24.046-10.162c0.701,0,1.474,0,2.25,0.155c7.371,0.618,15.205,7.057,21.023,17.299
		c5.276,9.151,9.466,20.477,11.946,33.046c0.701,3.182,3.493,5.507,7.292,5.507h0.079c1.86-0.155,3.489-1.007,4.656-2.405
		c1.238-1.394,1.784-3.178,1.629-5.042c-1.318-14.662-4.345-27.538-9.386-39.329C493.614,341.409,489.736,335.36,485.081,330.394z
		 M265.697,364.14c-3.337,1.55-6.208,3.644-8.534,6.36l-1.163,1.398c-0.39-0.466-0.777-0.932-1.242-1.398
		c-2.326-2.716-5.197-4.81-8.454-6.36c3.337-2.716,6.515-5.352,9.697-8.147C259.179,358.788,262.285,361.424,265.697,364.14z
		 M227.762,308.594c0,10.008-8.144,18.231-18.231,18.231c-2.716,0-5.197-0.621-7.522-1.629c-1.398-0.621-2.716-1.474-3.879-2.481
		c-1.474-1.087-2.791-2.561-3.878-4.19c-1.864-2.871-2.951-6.284-2.951-9.932c0-3.644,1.087-7.057,2.951-9.928
		c1.007-1.629,2.326-3.102,3.878-4.269c1.163-1.007,2.481-1.784,3.879-2.405c2.326-1.084,4.806-1.629,7.522-1.629
		C219.618,290.364,227.762,298.511,227.762,308.594z M313.872,322.716c-1.162,1.007-2.481,1.86-3.878,2.481
		c-2.33,1.008-4.811,1.629-7.527,1.629c-10.083,0-18.227-8.223-18.227-18.231c0-10.083,8.144-18.23,18.227-18.23
		c2.716,0,5.198,0.545,7.527,1.629c1.398,0.621,2.716,1.398,3.878,2.405c1.55,1.166,2.871,2.64,3.879,4.269
		c1.859,2.871,2.946,6.284,2.946,9.928c0,3.648-1.087,7.061-2.946,9.932C316.664,320.155,315.345,321.629,313.872,322.716z" style="fill: rgb(73, 83, 91);"></path>
	<path class="st0" d="M236.459,2.614C194.8,25.11,126.686,99.428,132.194,117.735c3.492,11.56,20.946,26.841,45.772,38.632
		c1.546-57.094,23.349-108.374,44.758-137.773C227.383,12.231,231.959,6.803,236.459,2.614z" style="fill: rgb(73, 83, 91);"></path>
	<path class="st0" d="M379.815,117.735c5.508-18.386-62.992-93.091-104.651-115.357c1.553,1.318,3.106,2.872,4.659,4.58
		c8.295,8.996,16.985,21.64,25.053,37.155c15.288,29.481,28.007,69.277,29.174,112.254
		C358.868,144.576,376.323,129.216,379.815,117.735z" style="fill: rgb(73, 83, 91);"></path>
	<path class="st0" d="M194.251,231.795c1.238,3.879,2.56,7.292,3.878,10.318c1.318,2.947,2.637,5.583,3.879,7.834
		c3.102,5.352,6.049,8.769,8.144,10.708c1.242,1.163,3.647,2.095,6.284,2.095h79.129c2.636,0,4.962-0.932,6.204-2.095
		c2.095-2.019,5.042-5.356,8.224-10.863c1.242-2.25,2.56-4.886,3.878-7.914c1.318-3.022,2.637-6.435,3.879-10.314
		c4.5-14.197,8.144-34.522,8.534-63.302c0.076-1.398,0.076-2.871,0.076-4.345v-1.242c0-0.928,0-1.939-0.076-2.867
		c-0.621-56.398-22.42-108.144-43.288-136.614c-7.06-9.697-13.962-16.754-19.549-20.322C260.266,0.852,257.629,0,256.001,0
		c-1.629,0-4.269,0.852-7.447,2.871c-3.182,2.091-6.83,5.197-10.708,9.386c-7.678,8.299-16.133,20.478-23.89,35.45
		c-15.204,29.322-27.852,69.277-28.314,112.099c-0.079,0.928-0.079,1.939-0.079,2.867v1.242c0,1.474,0,2.947,0.079,4.345
		C186.027,197.197,189.671,217.522,194.251,231.795z M244.675,75.015c8.765,4.345,11.326,16.989,5.738,28.314
		c-5.662,11.326-17.299,16.989-26.064,12.723c-8.69-4.345-11.25-17.068-5.663-28.394C224.349,76.334,235.985,70.67,244.675,75.015z" style="fill: rgb(73, 83, 91);"></path>
	<path class="st0" d="M209.535,299.417c0.394,0.697,0.621,1.474,0.621,2.33c0,2.557-2.015,4.575-4.575,4.575
		c-1.47,0-2.713-0.697-3.569-1.784v-1.162c-0.151,0.155-0.234,0.386-0.31,0.542c-0.856,1.318-1.318,2.947-1.318,4.655
		c0,1.939,0.622,3.723,1.629,5.197c1.629,2.406,4.425,3.954,7.523,3.954c5.046,0,9.159-4.11,9.159-9.151
		S214.581,299.417,209.535,299.417z" style="fill: rgb(73, 83, 91);"></path>
	<path class="st0" d="M302.474,299.417c0.386,0.697,0.621,1.474,0.621,2.33c0,2.557-2.014,4.575-4.575,4.575
		c-1.712,0-3.182-0.931-3.962-2.329c-0.773,1.322-1.234,2.871-1.234,4.579c0,5.042,4.106,9.151,9.151,9.151
		c3.098,0,5.894-1.549,7.522-3.954c1.008-1.474,1.629-3.258,1.629-5.197c0-1.939-0.621-3.723-1.629-5.197
		C308.368,300.97,305.573,299.417,302.474,299.417z" style="fill: rgb(73, 83, 91);"></path>
</g>
</svg>
